<svg xmlns="http://www.w3.org/2000/svg" width="53" height="53" viewBox="0 0 53 53"><g><g><path fill="#87949e" d="M47.88 27.323c-2.494 3.83-5.984 7.008-9.885 9.576-.377 6.21-3.523 11.99-8.64 15.64a2.493 2.493 0 0 1-2.395.274 2.49 2.49 0 0 1-1.503-1.886c-.378-2.235-1.381-4.712-2.86-7.215-1.656.453-3.264.82-4.77 1.08a2.484 2.484 0 0 1-2.185-.692l-6.75-6.748a2.488 2.488 0 0 1-.692-2.185A52.355 52.355 0 0 1 9.28 30.4c-2.5-1.477-4.976-2.481-7.212-2.858a2.488 2.488 0 0 1-1.61-3.899c3.649-5.117 9.43-8.263 15.638-8.642 2.567-3.901 5.746-7.392 9.575-9.885C32.934.387 41.565-.004 50.51-.004A2.487 2.487 0 0 1 53 2.483c0 8.59-.395 17.583-5.12 24.84zM28.89 47.542a16.596 16.596 0 0 0 4.552-8.012 55.788 55.788 0 0 1-6.786 2.91c.949 1.718 1.71 3.431 2.234 5.102zM5.455 24.108c1.668.523 3.381 1.285 5.098 2.232a55.923 55.923 0 0 1 2.91-6.784c-3.03.728-5.815 2.299-8.008 4.552zm22.93-14.823c-7.92 5.158-13.167 16.28-15.044 25.48l4.89 4.888c9.2-1.876 20.32-7.123 25.479-15.045 3.575-5.491 4.207-12.366 4.3-19.622-7.257.093-14.132.724-19.624 4.3zm7.197 12.276a4.147 4.147 0 1 1 0-8.293 4.147 4.147 0 0 1 0 8.293zM3.413 44.41a4.147 4.147 0 1 1 5.174 5.175l-5.94 1.8a.829.829 0 0 1-1.035-1.036z"/></g></g></svg>