<svg xmlns="http://www.w3.org/2000/svg" width="47" height="53" viewBox="0 0 47 53"><g><g><path fill="#fff" d="M46.189 39.503c-1.367 2.348-4.18 3.551-8.063 3.551-1.536 0-3.25-.2-5.097-.58C30.903 49.202 27.5 53.01 23.5 53.01c-3.996 0-7.4-3.809-9.527-10.532-1.897.396-3.639.584-5.193.584-3.846 0-6.588-1.186-7.967-3.557-1.926-3.319-.39-7.986 4.195-13.006-4.583-5.02-6.12-9.686-4.196-13.004 1.906-3.277 6.642-4.31 13.158-2.969C16.098 3.8 19.502-.01 23.5-.01c3.998 0 7.403 3.81 9.53 10.537 2.056-.43 3.923-.624 5.577-.59 3.643.077 6.25 1.27 7.58 3.558 1.926 3.317.39 7.985-4.195 13.005 4.584 5.018 6.121 9.685 4.197 13.004zm-28.001-.598c1.649 6.653 4.134 9.133 5.312 9.133 1.036 0 3.08-1.916 4.68-6.896a55.357 55.357 0 0 1-5.762-2.33 62.717 62.717 0 0 1-4.676-2.434l-.07-.041c.16.868.312 1.744.516 2.568zM5.185 37.034c.472.813 2.928 1.554 7.616.61-.38-1.967-.693-3.991-.86-6.12a64.156 64.156 0 0 1-.187-4.606c-.52.453-1.025.907-1.497 1.36-4.749 4.565-5.63 7.791-5.072 8.756zm9.873-21.14c-6.173-1.715-9.33-.867-9.876.072-.485.837.128 3.398 3.434 7.062 1.34-1.152 2.8-2.29 4.379-3.394a64.335 64.335 0 0 1 4.606-2.93 40.87 40.87 0 0 0-2.543-.81zm13.755-1.8c-1.649-6.655-4.134-9.135-5.313-9.135-1.036 0-3.08 1.918-4.68 6.898a55.21 55.21 0 0 1 5.762 2.329 64.072 64.072 0 0 1 4.677 2.432l.07.043c-.16-.868-.313-1.745-.516-2.568zm1.27 8.923a59.889 59.889 0 0 0-3.358-2.103A60.268 60.268 0 0 0 23.5 19.21a60.172 60.172 0 0 0-3.224 1.705 59.527 59.527 0 0 0-3.359 2.104c-.067 1.15-.134 2.305-.134 3.48 0 1.178.067 2.333.134 3.483a59.472 59.472 0 0 0 3.359 2.101A57.19 57.19 0 0 0 23.5 33.79a57.44 57.44 0 0 0 3.225-1.706 60.22 60.22 0 0 0 3.358-2.102c.068-1.151.135-2.305.135-3.482 0-1.176-.067-2.33-.135-3.482zm-.681 13.277c.862.303 1.712.581 2.54.81 6.17 1.713 9.33.863 9.877-.07.485-.84-.13-3.4-3.433-7.064a56.838 56.838 0 0 1-4.38 3.395 64.547 64.547 0 0 1-4.604 2.93zm12.413-20.33c-.475-.813-2.929-1.555-7.616-.611.38 1.967.694 3.993.861 6.121.118 1.501.177 3.05.187 4.606a40.24 40.24 0 0 0 1.497-1.361c4.749-4.563 5.63-7.79 5.071-8.755zM23.5 29.814c-1.854 0-3.359-1.486-3.359-3.315 0-1.83 1.505-3.315 3.36-3.315 1.853 0 3.358 1.484 3.358 3.315 0 1.829-1.505 3.315-3.359 3.315z"/></g></g></svg>