<svg xmlns="http://www.w3.org/2000/svg" width="66" height="52" viewBox="0 0 66 52"><g><g><path fill="#87949e" d="M66 18.57a3.721 3.721 0 0 1-2.028 3.325l-10.805 5.472V39c0 7.18-9.029 13-20.167 13-11.138 0-20.166-5.82-20.166-13V27.367l-5.5-2.785V35.8a3.706 3.706 0 0 1 1.833 3.199c0 2.052-1.642 3.714-3.667 3.714S1.834 41.051 1.834 39c0-1.371.74-2.555 1.833-3.2V22.726l-1.638-.83A3.721 3.721 0 0 1 0 18.571a3.72 3.72 0 0 1 2.029-3.325L31.362.39c.494-.251 1.05-.391 1.638-.391.59 0 1.144.14 1.639.39l29.333 14.857A3.72 3.72 0 0 1 66 18.571zM47.667 30.153l-13.028 6.6a3.61 3.61 0 0 1-1.639.39 3.61 3.61 0 0 1-1.638-.39l-13.028-6.6V39c0 3.435 6.406 7.43 14.666 7.43 8.261 0 14.667-3.995 14.667-7.43zm10.57-11.581L33 5.789 7.763 18.57 33 31.353z"/></g></g></svg>