<svg xmlns="http://www.w3.org/2000/svg" width="19" height="18" viewBox="0 0 19 18"><g><g><path fill="#fff" d="M18.851 5.206l-3.257 7.313c-.258.579-.824.98-1.48.98H3.8c-.9 0-1.629-.755-1.629-1.687v-8.37L.24 1.44A.857.857 0 0 1 0 .843C0 .377.364 0 .814 0c.225 0 .429.094.576.247l2.476 2.565H17.37c.9 0 1.63.755 1.63 1.688 0 .252-.054.49-.15.706zm-15.05 6.606h10.313l2.005-4.5H3.8zM17.37 4.5H3.801v1.125h13.07l.502-1.126zM4.343 14.625c.9 0 1.628.755 1.628 1.687 0 .933-.729 1.688-1.628 1.688-.9 0-1.629-.755-1.629-1.688 0-.932.73-1.687 1.629-1.687zm8.686 0c.899 0 1.628.755 1.628 1.687 0 .933-.73 1.688-1.628 1.688-.9 0-1.629-.755-1.629-1.688 0-.932.73-1.687 1.629-1.687z"/></g></g></svg>