<svg xmlns="http://www.w3.org/2000/svg" width="32" height="32" viewBox="0 0 32 32"><g><g><path fill="#17daa3" d="M28.913 16.472c-1.503 2.308-3.607 4.224-5.959 5.772a12.518 12.518 0 0 1-5.208 9.429 1.503 1.503 0 0 1-1.444.165 1.502 1.502 0 0 1-.906-1.137c-.228-1.347-.833-2.84-1.724-4.35-.998.273-1.968.495-2.875.652a1.498 1.498 0 0 1-1.317-.417l-4.07-4.068a1.5 1.5 0 0 1-.417-1.318c.158-.907.379-1.876.651-2.874-1.507-.89-3-1.495-4.348-1.723a1.5 1.5 0 0 1-.97-2.35 12.523 12.523 0 0 1 9.427-5.21c1.547-2.351 3.464-4.456 5.772-5.96C19.903.234 25.107-.001 30.5-.001c.829 0 1.5.67 1.5 1.5 0 5.178-.238 10.599-3.087 14.974zM17.466 28.66a10.006 10.006 0 0 0 2.743-4.83c-1.35.69-2.73 1.274-4.09 1.755.572 1.035 1.03 2.068 1.347 3.075zM3.338 14.533c1.006.316 2.038.775 3.074 1.346a33.684 33.684 0 0 1 1.754-4.09 10.007 10.007 0 0 0-4.828 2.744zm13.823-8.935c-4.774 3.11-7.938 9.813-9.069 15.36l2.948 2.947c5.546-1.132 12.25-4.295 15.36-9.07 2.155-3.31 2.536-7.455 2.592-11.829-4.375.056-8.52.436-11.83 2.592zm4.339 7.4a2.5 2.5 0 1 1 0-5 2.5 2.5 0 0 1 0 5zM2.107 26.772a2.5 2.5 0 1 1 3.12 3.119l-3.582 1.086a.5.5 0 0 1-.624-.624z"/></g></g></svg>